<?xml version="1.0" encoding="UTF-8" standalone="no"?>
<!-- Created with Inkscape (http://www.inkscape.org/) -->

<svg
   width="1920"
   height="1080"
   viewBox="0 0 1920 1080"
   version="1.1"
   id="svg5"
   sodipodi:docname="shapes.svg"
   inkscape:version="1.2-beta (1b65182ce9, 2022-04-05)"
   xmlns:inkscape="http://www.inkscape.org/namespaces/inkscape"
   xmlns:sodipodi="http://sodipodi.sourceforge.net/DTD/sodipodi-0.dtd"
   xmlns="http://www.w3.org/2000/svg"
   xmlns:svg="http://www.w3.org/2000/svg">
  <sodipodi:namedview
     id="namedview7"
     pagecolor="#ffffff"
     bordercolor="#000000"
     borderopacity="0.25"
     inkscape:pageshadow="2"
     inkscape:pageopacity="0.0"
     inkscape:pagecheckerboard="0"
     inkscape:deskcolor="#d1d1d1"
     inkscape:document-units="px"
     showgrid="false"
     inkscape:zoom="0.6265625"
     inkscape:cx="962.39401"
     inkscape:cy="539.45137"
     inkscape:window-width="1920"
     inkscape:window-height="1017"
     inkscape:window-x="-8"
     inkscape:window-y="-8"
     inkscape:window-maximized="1"
     inkscape:current-layer="layer1" />
  <defs
     id="defs2">
    <inkscape:path-effect
       effect="bspline"
       id="path-effect1919"
       is_visible="true"
       lpeversion="1"
       weight="33.333333"
       steps="2"
       helper_size="0"
       apply_no_weight="true"
       apply_with_weight="true"
       only_selected="false" />
    <inkscape:path-effect
       effect="bspline"
       id="path-effect1903"
       is_visible="true"
       lpeversion="1"
       weight="33.333333"
       steps="2"
       helper_size="0"
       apply_no_weight="true"
       apply_with_weight="true"
       only_selected="false" />
    <inkscape:path-effect
       effect="bspline"
       id="path-effect1873"
       is_visible="true"
       lpeversion="1"
       weight="33.333333"
       steps="2"
       helper_size="0"
       apply_no_weight="true"
       apply_with_weight="true"
       only_selected="false" />
    <inkscape:path-effect
       effect="bspline"
       id="path-effect1869"
       is_visible="true"
       lpeversion="1"
       weight="33.333333"
       steps="2"
       helper_size="0"
       apply_no_weight="true"
       apply_with_weight="true"
       only_selected="false" />
    <inkscape:path-effect
       effect="bspline"
       id="path-effect1599"
       is_visible="true"
       lpeversion="1"
       weight="33.333333"
       steps="2"
       helper_size="0"
       apply_no_weight="true"
       apply_with_weight="true"
       only_selected="false" />
    <inkscape:path-effect
       effect="bspline"
       id="path-effect1595"
       is_visible="true"
       lpeversion="1"
       weight="33.333333"
       steps="2"
       helper_size="0"
       apply_no_weight="true"
       apply_with_weight="true"
       only_selected="false" />
    <inkscape:path-effect
       effect="bspline"
       id="path-effect1591"
       is_visible="true"
       lpeversion="1"
       weight="33.333333"
       steps="2"
       helper_size="0"
       apply_no_weight="true"
       apply_with_weight="true"
       only_selected="false" />
    <inkscape:path-effect
       effect="bspline"
       id="path-effect1587"
       is_visible="true"
       lpeversion="1"
       weight="33.333333"
       steps="2"
       helper_size="0"
       apply_no_weight="true"
       apply_with_weight="true"
       only_selected="false" />
  </defs>
  <g
     inkscape:label="Vrstva 1"
     inkscape:groupmode="layer"
     id="layer1">
    <path
       style="fill:#bcb6dc"
       d="m -13.03357,616.06037 c 31.654806,-97.88897 72.619063,-92.03694 120.23368,-41.22915 47.61462,50.80779 101.87787,146.56648 193.916,212.26881 92.03812,65.70234 221.84434,101.34585 357.24027,91.50297 135.39593,-9.84288 276.37399,-65.17013 397.13992,-96.02631 120.766,-30.85618 221.3126,-37.24009 290.7393,-0.26442 69.4266,36.97566 107.73,117.30657 162.7934,182.74328 55.0634,65.43675 126.8824,115.97605 118.9013,144.70385 -7.981,28.7278 -95.7598,35.6437 -395.2827,33.2496 C 933.12463,1140.6149 421.87966,1128.9111 177.4238,1022.2428 -67.032069,915.57457 -44.688376,713.94934 -13.03357,616.06037 Z"
       id="path1917"
       inkscape:path-effect="#path-effect1919"
       inkscape:original-d="m -22.34414,512.3192 c 40.965256,5.85304 81.929512,11.70508 122.89277,17.55611 54.26642,95.76352 108.52968,191.5222 162.79302,287.2818 129.8124,35.64593 259.61862,71.28944 389.42643,106.93267 140.9847,-55.32846 281.96276,-110.6557 422.94262,-165.98504 100.5517,-6.38317 201.0983,-12.76708 301.6459,-19.15212 38.306,80.33511 76.6095,160.666 114.9127,240.9975 71.8229,50.54238 143.6419,101.08168 215.4614,151.62098 -87.7813,6.9172 -175.5601,13.8331 -263.3417,20.7481 C 933.12461,1140.6159 421.87964,1128.9121 -89.376559,1117.207 -67.030972,915.57469 -44.687279,713.94946 -22.34414,512.3192 Z" />
    <path
       style="fill:#bcb6dc"
       d="m 20.74813,836.30923 c -17.7113218,-5.11431 -34.036655,2.73354 -51.07232,6.38404 -3.678328,0.78821 -7.57659,0.48971 -11.172069,1.59601 -3.410972,1.04953 -6.262525,3.46261 -9.57606,4.78803 -2.036619,0.81464 -4.36789,0.73194 -6.38404,1.59601 -5.677236,2.4331 -9.759178,7.40441 -14.36409,11.17207 -4.117478,3.36884 -8.706839,6.13962 -12.76808,9.57606 -12.455949,10.53965 -19.626591,25.82729 -27.132171,39.90025 -7.16484,13.43407 -16.12827,26.86671 -20.74813,41.49626 -1.63375,5.17355 -2.01509,10.6639 -3.19202,15.96009 -2.06281,9.28265 -6.57545,20.49335 -4.78803,30.32419 1.08508,5.96796 3.42409,11.64566 4.78803,17.55616 2.70762,11.733 4.05759,28.0277 11.17207,38.3042 5.15687,7.4488 11.14994,14.342 17.55611,20.7481 2.40875,2.4088 5.5713,3.9753 7.980052,6.3841 2.938084,2.938 4.883513,6.8054 7.980049,9.576 55.640925,49.784 0.287578,-2.1543 33.51621,25.5362 2.889919,2.4082 5.183902,5.4635 7.98005,7.98 10.118128,9.1063 28.562493,19.6289 41.4962591,23.9402 18.8884199,6.2961 42.2922139,10.1219 62.2443889,11.1721 4.781412,0.2516 9.605345,-0.5288 14.36409,0 4.874829,0.5416 9.519282,2.427 14.36409,3.192 10.039533,1.5852 20.175931,2.6282 30.324191,3.192 15.89585,0.8831 31.97497,-0.6118 47.8803,0 6.93135,0.2666 13.8155,1.3649 20.74813,1.596 27.58834,0.9196 55.38084,0 82.99252,0 1.87262,0 27.89294,0.075 28.72818,-1.596 2.61983,-5.2397 -3.88075,-1.7569 3.19202,-4.788 8.34289,-3.5756 15.70914,-9.2405 23.94014,-12.7681 4.03231,-1.7281 8.78486,-1.3536 12.76808,-3.192 4.97318,-2.2953 9.36922,-5.7324 14.36409,-7.9801 5.67848,-2.5553 11.77455,-4.0714 17.55611,-6.384 6.40713,-2.5629 7.48194,-6.4044 12.76808,-9.5761 1.4426,-0.8655 3.34544,-0.7304 4.78803,-1.596 7.17504,-4.305 0.0352,-1.6312 4.78803,-6.384 1.35635,-1.3564 3.58977,-1.6942 4.78803,-3.1921 1.05095,-1.3136 0.84365,-3.2833 1.59601,-4.788 8.05736,-16.1147 14.36409,-34.2457 14.36409,-52.6683 0,-20.9852 1.17764,-1.813 -3.19202,-20.7481 -1.65471,-7.1705 -0.8076,-15.1717 -6.38404,-20.7482"
       id="path1923" />
    <path
       style="fill:#bcb6dc"
       d="m 427.73067,1053.3666 c -6.75126,-1.1072 -32.70009,-3.8377 -38.30424,-1.596 -7.06234,2.8249 -12.63097,9.5075 -19.15212,12.7681 -0.47583,0.2379 -1.21982,-0.3762 -1.59601,0 -1.22799,1.2279 -1.1864,4.7456 -1.59601,6.384 -1.64348,6.5739 -2.57622,11.2977 1.59601,17.5561 2.44442,3.6666 0.91164,-0.6844 4.78803,3.192 0.84118,0.8412 0.75484,2.3509 1.59601,3.192 5.42246,5.4225 13.92422,6.2741 20.74813,7.9801 2.30816,0.577 4.02876,2.8555 6.38404,3.192 2.63329,0.3762 5.33324,-0.2647 7.98005,0 29.58144,2.9582 55.23594,5.4125 78.20449,-17.5561 8.71344,-8.7134 1.4237,-3.8739 7.98005,-14.3641 1.19626,-1.914 3.87134,-2.7255 4.78803,-4.788 1.31429,-2.9572 0.66614,-6.4765 1.59601,-9.5761 2.02664,-6.7554 3.19202,-4.6655 3.19202,-9.576"
       id="path1925" />
  </g>
</svg>
